<svg xmlns="http://www.w3.org/2000/svg" viewBox="0 0 4.6 5.8" id="local-pricing-zip-icon"><path d="M2.302 0A2.307 2.307 0 0 0 .045 2.765c0 .01.005.02.005.035.254 1.139 2.039 2.85 2.114 2.919.04.04.09.055.139.055s.099-.02.139-.055c.075-.075 1.85-1.78 2.104-2.894 0-.01.005-.02.005-.03.034-.159.049-.323.049-.488A2.3 2.3 0 0 0 2.302 0zm1.85 2.72v.015c-.189.826-1.427 2.128-1.85 2.551C1.88 4.864.637 3.561.448 2.715c0-.01 0-.015-.005-.025A1.902 1.902 0 0 1 2.298.402 1.902 1.902 0 0 1 4.152 2.72z"></path><path d="M2.302 1.298a.771.771 0 1 0 0 1.543.771.771 0 0 0 0-1.543zm0 1.139a.367.367 0 0 1-.368-.368c0-.204.164-.368.368-.368s.368.164.368.368a.367.367 0 0 1-.368.368z"></path></svg>